<svg xmlns="http://www.w3.org/2000/svg" viewBox="0 0 900 350" width="900" height="350">
<defs>
<linearGradient id="sky" x1="0" y1="0" x2="0" y2="1">
<stop offset="0%" stop-color="#0c0e2e"/>
<stop offset="70%" stop-color="#141852"/>
<stop offset="100%" stop-color="#1a1a3e"/>
</linearGradient>
</defs>
<!-- Sky -->
<rect width="900" height="350" fill="url(#sky)"/>
<!-- Stars -->
<rect x="50" y="20" width="2" height="2" fill="#fff"/><rect x="120" y="45" width="2" height="2" fill="#fff"/>
<rect x="200" y="15" width="2" height="2" fill="#fff"/><rect x="280" y="55" width="2" height="2" fill="#fff"/>
<rect x="350" y="25" width="2" height="2" fill="#fff"/><rect x="420" y="60" width="2" height="2" fill="#fff"/>
<rect x="500" y="18" width="2" height="2" fill="#fff"/><rect x="580" y="40" width="2" height="2" fill="#fff"/>
<rect x="650" y="12" width="2" height="2" fill="#fff"/><rect x="720" y="50" width="2" height="2" fill="#fff"/>
<rect x="780" y="30" width="2" height="2" fill="#fff"/><rect x="850" y="22" width="2" height="2" fill="#fff"/>
<rect x="90" y="65" width="2" height="2" fill="#ddd"/><rect x="170" y="70" width="2" height="2" fill="#ddd"/>
<rect x="310" y="42" width="2" height="2" fill="#ddd"/><rect x="460" y="35" width="2" height="2" fill="#ddd"/>
<rect x="600" y="68" width="2" height="2" fill="#ddd"/><rect x="700" y="28" width="2" height="2" fill="#ddd"/>
<rect x="40" y="80" width="1" height="1" fill="#aaa"/><rect x="250" y="75" width="1" height="1" fill="#aaa"/>
<rect x="550" y="72" width="1" height="1" fill="#aaa"/><rect x="830" y="58" width="1" height="1" fill="#aaa"/>
<!-- Moon -->
<circle cx="820" cy="50" r="18" fill="#f5e6a3"/>
<circle cx="828" cy="46" r="15" fill="#0c0e2e"/>
<!-- Tree trunk -->
<rect x="100" y="140" width="5" height="60" fill="#6b4423"/>
<rect x="105" y="140" width="5" height="60" fill="#5a3a1d"/>
<rect x="98" y="155" width="2" height="3" fill="#5a3a1d"/>
<rect x="110" y="148" width="2" height="3" fill="#5a3a1d"/>
<!-- Tree canopy -->
<ellipse cx="105" cy="125" rx="28" ry="22" fill="#2d8a4e"/>
<ellipse cx="95" cy="130" rx="18" ry="16" fill="#3a9e5c"/>
<ellipse cx="118" cy="128" rx="20" ry="18" fill="#1f7a3a"/>
<ellipse cx="105" cy="115" rx="22" ry="15" fill="#3a9e5c"/>
<ellipse cx="90" cy="120" rx="14" ry="12" fill="#2d8a4e"/>
<ellipse cx="120" cy="118" rx="15" ry="13" fill="#2d8a4e"/>
<!-- NPC House -->
<rect x="380" y="165" width="80" height="35" fill="#5c3317"/><!-- back wall -->
<rect x="378" y="163" width="84" height="3" fill="#8b4513"/><!-- roof -->
<rect x="375" y="161" width="90" height="3" fill="#696969"/><!-- stone roof cap -->
<rect x="378" y="165" width="3" height="35" fill="#a0522d"/><!-- left wall -->
<rect x="459" y="165" width="3" height="35" fill="#a0522d"/><!-- right wall -->
<rect x="378" y="197" width="84" height="3" fill="#a0522d"/><!-- floor -->
<rect x="378" y="165" width="84" height="3" fill="#a0522d"/><!-- ceiling -->
<!-- Door -->
<rect x="415" y="185" width="6" height="15" fill="#654321"/>
<rect x="417" y="188" width="1" height="1" fill="#daa520"/><!-- doorknob -->
<!-- Window -->
<rect x="435" y="172" width="8" height="8" fill="#87ceeb"/>
<rect x="439" y="172" width="1" height="8" fill="#a0522d"/>
<rect x="435" y="176" width="8" height="1" fill="#a0522d"/>
<!-- Torch glow -->
<rect x="393" y="172" width="2" height="4" fill="#ffcc00"/>
<rect x="392" y="170" width="4" height="2" fill="#ff8c00"/>
<circle cx="394" cy="171" r="8" fill="#ff8c00" opacity="0.15"/>
<!-- Table and chair -->
<rect x="443" y="190" width="12" height="2" fill="#8b4513"/><!-- table top -->
<rect x="445" y="192" width="2" height="6" fill="#8b4513"/><!-- table leg -->
<rect x="453" y="192" width="2" height="6" fill="#8b4513"/><!-- table leg -->
<rect x="395" y="192" width="6" height="2" fill="#8b4513"/><!-- chair seat -->
<rect x="395" y="188" width="2" height="10" fill="#8b4513"/><!-- chair back -->
<!-- Guide NPC -->
<rect x="360" y="182" width="6" height="3" fill="#8b4513"/><!-- hair -->
<rect x="361" y="185" width="4" height="3" fill="#ffcc99"/><!-- face -->
<rect x="360" y="188" width="6" height="6" fill="#daa520"/><!-- yellow shirt -->
<rect x="358" y="189" width="2" height="5" fill="#daa520"/><!-- left arm -->
<rect x="366" y="189" width="2" height="5" fill="#daa520"/><!-- right arm -->
<rect x="360" y="194" width="3" height="4" fill="#654321"/><!-- left leg -->
<rect x="363" y="194" width="3" height="4" fill="#654321"/><!-- right leg -->
<rect x="360" y="198" width="3" height="2" fill="#4a3520"/><!-- left shoe -->
<rect x="363" y="198" width="3" height="2" fill="#4a3520"/><!-- right shoe -->
<!-- Chest -->
<rect x="250" y="192" width="12" height="8" fill="#b8860b"/><!-- body -->
<rect x="250" y="190" width="12" height="4" fill="#daa520"/><!-- lid -->
<rect x="255" y="193" width="2" height="2" fill="#8b6914"/><!-- lock -->
<!-- Blue Slime -->
<ellipse cx="700" cy="193" rx="14" ry="10" fill="#4169e1"/>
<ellipse cx="700" cy="190" rx="10" ry="7" fill="#6495ed" opacity="0.6"/>
<ellipse cx="700" cy="196" rx="12" ry="6" fill="#2a4db5" opacity="0.5"/>
<rect x="694" y="188" width="3" height="3" fill="#fff"/><!-- left eye -->
<rect x="701" y="188" width="3" height="3" fill="#fff"/><!-- right eye -->
<!-- Grass surface -->
<rect x="0" y="200" width="900" height="4" fill="#5ba13b"/>
<!-- Grass blades -->
<rect x="20" y="197" width="1" height="3" fill="#5ba13b"/><rect x="35" y="196" width="1" height="4" fill="#4a9030"/>
<rect x="55" y="197" width="1" height="3" fill="#5ba13b"/><rect x="72" y="196" width="1" height="4" fill="#4a9030"/>
<rect x="140" y="197" width="1" height="3" fill="#5ba13b"/><rect x="160" y="196" width="1" height="4" fill="#5ba13b"/>
<rect x="180" y="197" width="1" height="3" fill="#4a9030"/><rect x="220" y="196" width="1" height="4" fill="#5ba13b"/>
<rect x="270" y="197" width="1" height="3" fill="#5ba13b"/><rect x="300" y="196" width="1" height="4" fill="#4a9030"/>
<rect x="330" y="197" width="1" height="3" fill="#5ba13b"/><rect x="480" y="196" width="1" height="4" fill="#5ba13b"/>
<rect x="520" y="197" width="1" height="3" fill="#4a9030"/><rect x="560" y="196" width="1" height="4" fill="#5ba13b"/>
<rect x="620" y="197" width="1" height="3" fill="#5ba13b"/><rect x="660" y="196" width="1" height="4" fill="#4a9030"/>
<rect x="740" y="197" width="1" height="3" fill="#5ba13b"/><rect x="790" y="196" width="1" height="4" fill="#5ba13b"/>
<rect x="840" y="197" width="1" height="3" fill="#4a9030"/><rect x="870" y="196" width="1" height="4" fill="#5ba13b"/>
<!-- Small mushroom -->
<rect x="195" y="196" width="6" height="2" fill="#ff0000"/>
<rect x="197" y="195" width="2" height="1" fill="#ff0000"/>
<rect x="197" y="198" width="2" height="2" fill="#fff"/>
<!-- Flower -->
<rect x="290" y="196" width="2" height="2" fill="#ff69b4"/>
<rect x="290" y="198" width="1" height="2" fill="#2d8a4e"/>
<!-- Dirt layer -->
<rect x="0" y="204" width="900" height="30" fill="#8b6914"/>
<rect x="40" y="210" width="8" height="5" fill="#7a5c12"/><rect x="120" y="215" width="10" height="4" fill="#7a5c12"/>
<rect x="250" y="208" width="6" height="6" fill="#7a5c12"/><rect x="400" y="218" width="12" height="5" fill="#7a5c12"/>
<rect x="550" y="210" width="9" height="4" fill="#7a5c12"/><rect x="700" y="212" width="7" height="6" fill="#7a5c12"/>
<rect x="800" y="208" width="10" height="5" fill="#7a5c12"/>
<!-- Stone layer -->
<rect x="0" y="234" width="900" height="50" fill="#808080"/>
<rect x="30" y="240" width="12" height="8" fill="#696969"/><rect x="100" y="250" width="15" height="6" fill="#696969"/>
<rect x="200" y="238" width="10" height="10" fill="#696969"/><rect x="350" y="255" width="14" height="7" fill="#696969"/>
<rect x="500" y="242" width="11" height="9" fill="#696969"/><rect x="650" y="248" width="13" height="8" fill="#696969"/>
<rect x="780" y="240" width="9" height="7" fill="#696969"/><rect x="860" y="252" width="12" height="6" fill="#696969"/>
<!-- Ores in stone -->
<rect x="60" y="245" width="4" height="4" fill="#d35400"/><rect x="62" y="247" width="3" height="3" fill="#d35400"/>
<rect x="180" y="260" width="5" height="4" fill="#f1c40f"/><rect x="183" y="258" width="3" height="3" fill="#f1c40f"/>
<rect x="420" y="250" width="4" height="3" fill="#d35400"/><rect x="580" y="244" width="5" height="4" fill="#f1c40f"/>
<rect x="750" y="255" width="4" height="4" fill="#c0c0c0"/><rect x="850" y="248" width="3" height="3" fill="#d35400"/>
<!-- Cave void -->
<rect x="0" y="284" width="900" height="66" fill="#0a0a0a"/>
<!-- Cave ceiling rocks -->
<rect x="50" y="284" width="20" height="6" fill="#696969"/><rect x="150" y="284" width="30" height="8" fill="#808080"/>
<rect x="300" y="284" width="15" height="5" fill="#696969"/><rect x="500" y="284" width="25" height="7" fill="#808080"/>
<rect x="700" y="284" width="18" height="6" fill="#696969"/><rect x="850" y="284" width="20" height="5" fill="#808080"/>
<!-- Gems in cave -->
<rect x="80" y="310" width="4" height="5" fill="#9b59b6"/><rect x="82" y="308" width="3" height="3" fill="#9b59b6"/>
<rect x="230" y="320" width="5" height="4" fill="#3498db"/><rect x="232" y="318" width="3" height="3" fill="#3498db"/>
<rect x="400" y="305" width="4" height="5" fill="#e74c3c"/><rect x="402" y="303" width="3" height="3" fill="#e74c3c"/>
<rect x="600" y="315" width="5" height="4" fill="#2ecc71"/><rect x="602" y="313" width="3" height="3" fill="#2ecc71"/>
<rect x="770" y="308" width="4" height="5" fill="#9b59b6"/><rect x="772" y="306" width="3" height="3" fill="#9b59b6"/>
<!-- Lava at bottom -->
<rect x="0" y="340" width="900" height="10" fill="#ff4500"/>
<rect x="50" y="338" width="8" height="4" fill="#ff6600"/><rect x="200" y="337" width="6" height="5" fill="#ff6600"/>
<rect x="400" y="339" width="10" height="3" fill="#ff6600"/><rect x="600" y="337" width="7" height="5" fill="#ff6600"/>
<rect x="800" y="338" width="9" height="4" fill="#ff6600"/>
<!-- Pixel Title: MY TERRARIA -->
<rect x="165" y="50" width="6" height="6" fill="#e8e8e8"/><rect x="166" y="55" width="5" height="1" fill="#a8a8a8" opacity="0.5"/><rect x="189" y="50" width="6" height="6" fill="#e8e8e8"/><rect x="190" y="55" width="5" height="1" fill="#a8a8a8" opacity="0.5"/><rect x="165" y="56" width="6" height="6" fill="#e8e8e8"/><rect x="166" y="61" width="5" height="1" fill="#a8a8a8" opacity="0.5"/><rect x="171" y="56" width="6" height="6" fill="#e8e8e8"/><rect x="172" y="61" width="5" height="1" fill="#a8a8a8" opacity="0.5"/><rect x="183" y="56" width="6" height="6" fill="#e8e8e8"/><rect x="184" y="61" width="5" height="1" fill="#a8a8a8" opacity="0.5"/><rect x="189" y="56" width="6" height="6" fill="#e8e8e8"/><rect x="190" y="61" width="5" height="1" fill="#a8a8a8" opacity="0.5"/><rect x="165" y="62" width="6" height="6" fill="#e8e8e8"/><rect x="166" y="67" width="5" height="1" fill="#a8a8a8" opacity="0.5"/><rect x="177" y="62" width="6" height="6" fill="#e8e8e8"/><rect x="178" y="67" width="5" height="1" fill="#a8a8a8" opacity="0.5"/><rect x="189" y="62" width="6" height="6" fill="#e8e8e8"/><rect x="190" y="67" width="5" height="1" fill="#a8a8a8" opacity="0.5"/><rect x="165" y="68" width="6" height="6" fill="#e8e8e8"/><rect x="166" y="73" width="5" height="1" fill="#a8a8a8" opacity="0.5"/><rect x="177" y="68" width="6" height="6" fill="#e8e8e8"/><rect x="178" y="73" width="5" height="1" fill="#a8a8a8" opacity="0.5"/><rect x="189" y="68" width="6" height="6" fill="#e8e8e8"/><rect x="190" y="73" width="5" height="1" fill="#a8a8a8" opacity="0.5"/><rect x="165" y="74" width="6" height="6" fill="#e8e8e8"/><rect x="166" y="79" width="5" height="1" fill="#a8a8a8" opacity="0.5"/><rect x="189" y="74" width="6" height="6" fill="#e8e8e8"/><rect x="190" y="79" width="5" height="1" fill="#a8a8a8" opacity="0.5"/><rect x="165" y="80" width="6" height="6" fill="#e8e8e8"/><rect x="166" y="85" width="5" height="1" fill="#a8a8a8" opacity="0.5"/><rect x="189" y="80" width="6" height="6" fill="#e8e8e8"/><rect x="190" y="85" width="5" height="1" fill="#a8a8a8" opacity="0.5"/><rect x="165" y="86" width="6" height="6" fill="#e8e8e8"/><rect x="166" y="91" width="5" height="1" fill="#a8a8a8" opacity="0.5"/><rect x="189" y="86" width="6" height="6" fill="#e8e8e8"/><rect x="190" y="91" width="5" height="1" fill="#a8a8a8" opacity="0.5"/><rect x="201" y="50" width="6" height="6" fill="#e8e8e8"/><rect x="202" y="55" width="5" height="1" fill="#a8a8a8" opacity="0.5"/><rect x="225" y="50" width="6" height="6" fill="#e8e8e8"/><rect x="226" y="55" width="5" height="1" fill="#a8a8a8" opacity="0.5"/><rect x="201" y="56" width="6" height="6" fill="#e8e8e8"/><rect x="202" y="61" width="5" height="1" fill="#a8a8a8" opacity="0.5"/><rect x="225" y="56" width="6" height="6" fill="#e8e8e8"/><rect x="226" y="61" width="5" height="1" fill="#a8a8a8" opacity="0.5"/><rect x="207" y="62" width="6" height="6" fill="#e8e8e8"/><rect x="208" y="67" width="5" height="1" fill="#a8a8a8" opacity="0.5"/><rect x="219" y="62" width="6" height="6" fill="#e8e8e8"/><rect x="220" y="67" width="5" height="1" fill="#a8a8a8" opacity="0.5"/><rect x="213" y="68" width="6" height="6" fill="#e8e8e8"/><rect x="214" y="73" width="5" height="1" fill="#a8a8a8" opacity="0.5"/><rect x="213" y="74" width="6" height="6" fill="#e8e8e8"/><rect x="214" y="79" width="5" height="1" fill="#a8a8a8" opacity="0.5"/><rect x="213" y="80" width="6" height="6" fill="#e8e8e8"/><rect x="214" y="85" width="5" height="1" fill="#a8a8a8" opacity="0.5"/><rect x="213" y="86" width="6" height="6" fill="#e8e8e8"/><rect x="214" y="91" width="5" height="1" fill="#a8a8a8" opacity="0.5"/><rect x="273" y="50" width="6" height="6" fill="#e8e8e8"/><rect x="274" y="55" width="5" height="1" fill="#a8a8a8" opacity="0.5"/><rect x="279" y="50" width="6" height="6" fill="#e8e8e8"/><rect x="280" y="55" width="5" height="1" fill="#a8a8a8" opacity="0.5"/><rect x="285" y="50" width="6" height="6" fill="#e8e8e8"/><rect x="286" y="55" width="5" height="1" fill="#a8a8a8" opacity="0.5"/><rect x="291" y="50" width="6" height="6" fill="#e8e8e8"/><rect x="292" y="55" width="5" height="1" fill="#a8a8a8" opacity="0.5"/><rect x="297" y="50" width="6" height="6" fill="#e8e8e8"/><rect x="298" y="55" width="5" height="1" fill="#a8a8a8" opacity="0.5"/><rect x="285" y="56" width="6" height="6" fill="#e8e8e8"/><rect x="286" y="61" width="5" height="1" fill="#a8a8a8" opacity="0.5"/><rect x="285" y="62" width="6" height="6" fill="#e8e8e8"/><rect x="286" y="67" width="5" height="1" fill="#a8a8a8" opacity="0.5"/><rect x="285" y="68" width="6" height="6" fill="#e8e8e8"/><rect x="286" y="73" width="5" height="1" fill="#a8a8a8" opacity="0.5"/><rect x="285" y="74" width="6" height="6" fill="#e8e8e8"/><rect x="286" y="79" width="5" height="1" fill="#a8a8a8" opacity="0.5"/><rect x="285" y="80" width="6" height="6" fill="#e8e8e8"/><rect x="286" y="85" width="5" height="1" fill="#a8a8a8" opacity="0.5"/><rect x="285" y="86" width="6" height="6" fill="#e8e8e8"/><rect x="286" y="91" width="5" height="1" fill="#a8a8a8" opacity="0.5"/><rect x="309" y="50" width="6" height="6" fill="#e8e8e8"/><rect x="310" y="55" width="5" height="1" fill="#a8a8a8" opacity="0.5"/><rect x="315" y="50" width="6" height="6" fill="#e8e8e8"/><rect x="316" y="55" width="5" height="1" fill="#a8a8a8" opacity="0.5"/><rect x="321" y="50" width="6" height="6" fill="#e8e8e8"/><rect x="322" y="55" width="5" height="1" fill="#a8a8a8" opacity="0.5"/><rect x="327" y="50" width="6" height="6" fill="#e8e8e8"/><rect x="328" y="55" width="5" height="1" fill="#a8a8a8" opacity="0.5"/><rect x="333" y="50" width="6" height="6" fill="#e8e8e8"/><rect x="334" y="55" width="5" height="1" fill="#a8a8a8" opacity="0.5"/><rect x="309" y="56" width="6" height="6" fill="#e8e8e8"/><rect x="310" y="61" width="5" height="1" fill="#a8a8a8" opacity="0.5"/><rect x="309" y="62" width="6" height="6" fill="#e8e8e8"/><rect x="310" y="67" width="5" height="1" fill="#a8a8a8" opacity="0.5"/><rect x="309" y="68" width="6" height="6" fill="#e8e8e8"/><rect x="310" y="73" width="5" height="1" fill="#a8a8a8" opacity="0.5"/><rect x="315" y="68" width="6" height="6" fill="#e8e8e8"/><rect x="316" y="73" width="5" height="1" fill="#a8a8a8" opacity="0.5"/><rect x="321" y="68" width="6" height="6" fill="#e8e8e8"/><rect x="322" y="73" width="5" height="1" fill="#a8a8a8" opacity="0.5"/><rect x="327" y="68" width="6" height="6" fill="#e8e8e8"/><rect x="328" y="73" width="5" height="1" fill="#a8a8a8" opacity="0.5"/><rect x="309" y="74" width="6" height="6" fill="#e8e8e8"/><rect x="310" y="79" width="5" height="1" fill="#a8a8a8" opacity="0.5"/><rect x="309" y="80" width="6" height="6" fill="#e8e8e8"/><rect x="310" y="85" width="5" height="1" fill="#a8a8a8" opacity="0.5"/><rect x="309" y="86" width="6" height="6" fill="#e8e8e8"/><rect x="310" y="91" width="5" height="1" fill="#a8a8a8" opacity="0.5"/><rect x="315" y="86" width="6" height="6" fill="#e8e8e8"/><rect x="316" y="91" width="5" height="1" fill="#a8a8a8" opacity="0.5"/><rect x="321" y="86" width="6" height="6" fill="#e8e8e8"/><rect x="322" y="91" width="5" height="1" fill="#a8a8a8" opacity="0.5"/><rect x="327" y="86" width="6" height="6" fill="#e8e8e8"/><rect x="328" y="91" width="5" height="1" fill="#a8a8a8" opacity="0.5"/><rect x="333" y="86" width="6" height="6" fill="#e8e8e8"/><rect x="334" y="91" width="5" height="1" fill="#a8a8a8" opacity="0.5"/><rect x="345" y="50" width="6" height="6" fill="#e8e8e8"/><rect x="346" y="55" width="5" height="1" fill="#a8a8a8" opacity="0.5"/><rect x="351" y="50" width="6" height="6" fill="#e8e8e8"/><rect x="352" y="55" width="5" height="1" fill="#a8a8a8" opacity="0.5"/><rect x="357" y="50" width="6" height="6" fill="#e8e8e8"/><rect x="358" y="55" width="5" height="1" fill="#a8a8a8" opacity="0.5"/><rect x="363" y="50" width="6" height="6" fill="#e8e8e8"/><rect x="364" y="55" width="5" height="1" fill="#a8a8a8" opacity="0.5"/><rect x="345" y="56" width="6" height="6" fill="#e8e8e8"/><rect x="346" y="61" width="5" height="1" fill="#a8a8a8" opacity="0.5"/><rect x="369" y="56" width="6" height="6" fill="#e8e8e8"/><rect x="370" y="61" width="5" height="1" fill="#a8a8a8" opacity="0.5"/><rect x="345" y="62" width="6" height="6" fill="#e8e8e8"/><rect x="346" y="67" width="5" height="1" fill="#a8a8a8" opacity="0.5"/><rect x="369" y="62" width="6" height="6" fill="#e8e8e8"/><rect x="370" y="67" width="5" height="1" fill="#a8a8a8" opacity="0.5"/><rect x="345" y="68" width="6" height="6" fill="#e8e8e8"/><rect x="346" y="73" width="5" height="1" fill="#a8a8a8" opacity="0.5"/><rect x="351" y="68" width="6" height="6" fill="#e8e8e8"/><rect x="352" y="73" width="5" height="1" fill="#a8a8a8" opacity="0.5"/><rect x="357" y="68" width="6" height="6" fill="#e8e8e8"/><rect x="358" y="73" width="5" height="1" fill="#a8a8a8" opacity="0.5"/><rect x="363" y="68" width="6" height="6" fill="#e8e8e8"/><rect x="364" y="73" width="5" height="1" fill="#a8a8a8" opacity="0.5"/><rect x="345" y="74" width="6" height="6" fill="#e8e8e8"/><rect x="346" y="79" width="5" height="1" fill="#a8a8a8" opacity="0.5"/><rect x="357" y="74" width="6" height="6" fill="#e8e8e8"/><rect x="358" y="79" width="5" height="1" fill="#a8a8a8" opacity="0.5"/><rect x="345" y="80" width="6" height="6" fill="#e8e8e8"/><rect x="346" y="85" width="5" height="1" fill="#a8a8a8" opacity="0.5"/><rect x="363" y="80" width="6" height="6" fill="#e8e8e8"/><rect x="364" y="85" width="5" height="1" fill="#a8a8a8" opacity="0.5"/><rect x="345" y="86" width="6" height="6" fill="#e8e8e8"/><rect x="346" y="91" width="5" height="1" fill="#a8a8a8" opacity="0.5"/><rect x="369" y="86" width="6" height="6" fill="#e8e8e8"/><rect x="370" y="91" width="5" height="1" fill="#a8a8a8" opacity="0.5"/><rect x="381" y="50" width="6" height="6" fill="#e8e8e8"/><rect x="382" y="55" width="5" height="1" fill="#a8a8a8" opacity="0.5"/><rect x="387" y="50" width="6" height="6" fill="#e8e8e8"/><rect x="388" y="55" width="5" height="1" fill="#a8a8a8" opacity="0.5"/><rect x="393" y="50" width="6" height="6" fill="#e8e8e8"/><rect x="394" y="55" width="5" height="1" fill="#a8a8a8" opacity="0.5"/><rect x="399" y="50" width="6" height="6" fill="#e8e8e8"/><rect x="400" y="55" width="5" height="1" fill="#a8a8a8" opacity="0.5"/><rect x="381" y="56" width="6" height="6" fill="#e8e8e8"/><rect x="382" y="61" width="5" height="1" fill="#a8a8a8" opacity="0.5"/><rect x="405" y="56" width="6" height="6" fill="#e8e8e8"/><rect x="406" y="61" width="5" height="1" fill="#a8a8a8" opacity="0.5"/><rect x="381" y="62" width="6" height="6" fill="#e8e8e8"/><rect x="382" y="67" width="5" height="1" fill="#a8a8a8" opacity="0.5"/><rect x="405" y="62" width="6" height="6" fill="#e8e8e8"/><rect x="406" y="67" width="5" height="1" fill="#a8a8a8" opacity="0.5"/><rect x="381" y="68" width="6" height="6" fill="#e8e8e8"/><rect x="382" y="73" width="5" height="1" fill="#a8a8a8" opacity="0.5"/><rect x="387" y="68" width="6" height="6" fill="#e8e8e8"/><rect x="388" y="73" width="5" height="1" fill="#a8a8a8" opacity="0.5"/><rect x="393" y="68" width="6" height="6" fill="#e8e8e8"/><rect x="394" y="73" width="5" height="1" fill="#a8a8a8" opacity="0.5"/><rect x="399" y="68" width="6" height="6" fill="#e8e8e8"/><rect x="400" y="73" width="5" height="1" fill="#a8a8a8" opacity="0.5"/><rect x="381" y="74" width="6" height="6" fill="#e8e8e8"/><rect x="382" y="79" width="5" height="1" fill="#a8a8a8" opacity="0.5"/><rect x="393" y="74" width="6" height="6" fill="#e8e8e8"/><rect x="394" y="79" width="5" height="1" fill="#a8a8a8" opacity="0.5"/><rect x="381" y="80" width="6" height="6" fill="#e8e8e8"/><rect x="382" y="85" width="5" height="1" fill="#a8a8a8" opacity="0.5"/><rect x="399" y="80" width="6" height="6" fill="#e8e8e8"/><rect x="400" y="85" width="5" height="1" fill="#a8a8a8" opacity="0.5"/><rect x="381" y="86" width="6" height="6" fill="#e8e8e8"/><rect x="382" y="91" width="5" height="1" fill="#a8a8a8" opacity="0.5"/><rect x="405" y="86" width="6" height="6" fill="#e8e8e8"/><rect x="406" y="91" width="5" height="1" fill="#a8a8a8" opacity="0.5"/><rect x="423" y="50" width="6" height="6" fill="#e8e8e8"/><rect x="424" y="55" width="5" height="1" fill="#a8a8a8" opacity="0.5"/><rect x="429" y="50" width="6" height="6" fill="#e8e8e8"/><rect x="430" y="55" width="5" height="1" fill="#a8a8a8" opacity="0.5"/><rect x="435" y="50" width="6" height="6" fill="#e8e8e8"/><rect x="436" y="55" width="5" height="1" fill="#a8a8a8" opacity="0.5"/><rect x="417" y="56" width="6" height="6" fill="#e8e8e8"/><rect x="418" y="61" width="5" height="1" fill="#a8a8a8" opacity="0.5"/><rect x="441" y="56" width="6" height="6" fill="#e8e8e8"/><rect x="442" y="61" width="5" height="1" fill="#a8a8a8" opacity="0.5"/><rect x="417" y="62" width="6" height="6" fill="#e8e8e8"/><rect x="418" y="67" width="5" height="1" fill="#a8a8a8" opacity="0.5"/><rect x="441" y="62" width="6" height="6" fill="#e8e8e8"/><rect x="442" y="67" width="5" height="1" fill="#a8a8a8" opacity="0.5"/><rect x="417" y="68" width="6" height="6" fill="#e8e8e8"/><rect x="418" y="73" width="5" height="1" fill="#a8a8a8" opacity="0.5"/><rect x="423" y="68" width="6" height="6" fill="#e8e8e8"/><rect x="424" y="73" width="5" height="1" fill="#a8a8a8" opacity="0.5"/><rect x="429" y="68" width="6" height="6" fill="#e8e8e8"/><rect x="430" y="73" width="5" height="1" fill="#a8a8a8" opacity="0.5"/><rect x="435" y="68" width="6" height="6" fill="#e8e8e8"/><rect x="436" y="73" width="5" height="1" fill="#a8a8a8" opacity="0.5"/><rect x="441" y="68" width="6" height="6" fill="#e8e8e8"/><rect x="442" y="73" width="5" height="1" fill="#a8a8a8" opacity="0.5"/><rect x="417" y="74" width="6" height="6" fill="#e8e8e8"/><rect x="418" y="79" width="5" height="1" fill="#a8a8a8" opacity="0.5"/><rect x="441" y="74" width="6" height="6" fill="#e8e8e8"/><rect x="442" y="79" width="5" height="1" fill="#a8a8a8" opacity="0.5"/><rect x="417" y="80" width="6" height="6" fill="#e8e8e8"/><rect x="418" y="85" width="5" height="1" fill="#a8a8a8" opacity="0.5"/><rect x="441" y="80" width="6" height="6" fill="#e8e8e8"/><rect x="442" y="85" width="5" height="1" fill="#a8a8a8" opacity="0.5"/><rect x="417" y="86" width="6" height="6" fill="#e8e8e8"/><rect x="418" y="91" width="5" height="1" fill="#a8a8a8" opacity="0.5"/><rect x="441" y="86" width="6" height="6" fill="#e8e8e8"/><rect x="442" y="91" width="5" height="1" fill="#a8a8a8" opacity="0.5"/><rect x="453" y="50" width="6" height="6" fill="#e8e8e8"/><rect x="454" y="55" width="5" height="1" fill="#a8a8a8" opacity="0.5"/><rect x="459" y="50" width="6" height="6" fill="#e8e8e8"/><rect x="460" y="55" width="5" height="1" fill="#a8a8a8" opacity="0.5"/><rect x="465" y="50" width="6" height="6" fill="#e8e8e8"/><rect x="466" y="55" width="5" height="1" fill="#a8a8a8" opacity="0.5"/><rect x="471" y="50" width="6" height="6" fill="#e8e8e8"/><rect x="472" y="55" width="5" height="1" fill="#a8a8a8" opacity="0.5"/><rect x="453" y="56" width="6" height="6" fill="#e8e8e8"/><rect x="454" y="61" width="5" height="1" fill="#a8a8a8" opacity="0.5"/><rect x="477" y="56" width="6" height="6" fill="#e8e8e8"/><rect x="478" y="61" width="5" height="1" fill="#a8a8a8" opacity="0.5"/><rect x="453" y="62" width="6" height="6" fill="#e8e8e8"/><rect x="454" y="67" width="5" height="1" fill="#a8a8a8" opacity="0.5"/><rect x="477" y="62" width="6" height="6" fill="#e8e8e8"/><rect x="478" y="67" width="5" height="1" fill="#a8a8a8" opacity="0.5"/><rect x="453" y="68" width="6" height="6" fill="#e8e8e8"/><rect x="454" y="73" width="5" height="1" fill="#a8a8a8" opacity="0.5"/><rect x="459" y="68" width="6" height="6" fill="#e8e8e8"/><rect x="460" y="73" width="5" height="1" fill="#a8a8a8" opacity="0.5"/><rect x="465" y="68" width="6" height="6" fill="#e8e8e8"/><rect x="466" y="73" width="5" height="1" fill="#a8a8a8" opacity="0.5"/><rect x="471" y="68" width="6" height="6" fill="#e8e8e8"/><rect x="472" y="73" width="5" height="1" fill="#a8a8a8" opacity="0.5"/><rect x="453" y="74" width="6" height="6" fill="#e8e8e8"/><rect x="454" y="79" width="5" height="1" fill="#a8a8a8" opacity="0.5"/><rect x="465" y="74" width="6" height="6" fill="#e8e8e8"/><rect x="466" y="79" width="5" height="1" fill="#a8a8a8" opacity="0.5"/><rect x="453" y="80" width="6" height="6" fill="#e8e8e8"/><rect x="454" y="85" width="5" height="1" fill="#a8a8a8" opacity="0.5"/><rect x="471" y="80" width="6" height="6" fill="#e8e8e8"/><rect x="472" y="85" width="5" height="1" fill="#a8a8a8" opacity="0.5"/><rect x="453" y="86" width="6" height="6" fill="#e8e8e8"/><rect x="454" y="91" width="5" height="1" fill="#a8a8a8" opacity="0.5"/><rect x="477" y="86" width="6" height="6" fill="#e8e8e8"/><rect x="478" y="91" width="5" height="1" fill="#a8a8a8" opacity="0.5"/><rect x="489" y="50" width="6" height="6" fill="#e8e8e8"/><rect x="490" y="55" width="5" height="1" fill="#a8a8a8" opacity="0.5"/><rect x="495" y="50" width="6" height="6" fill="#e8e8e8"/><rect x="496" y="55" width="5" height="1" fill="#a8a8a8" opacity="0.5"/><rect x="501" y="50" width="6" height="6" fill="#e8e8e8"/><rect x="502" y="55" width="5" height="1" fill="#a8a8a8" opacity="0.5"/><rect x="507" y="50" width="6" height="6" fill="#e8e8e8"/><rect x="508" y="55" width="5" height="1" fill="#a8a8a8" opacity="0.5"/><rect x="513" y="50" width="6" height="6" fill="#e8e8e8"/><rect x="514" y="55" width="5" height="1" fill="#a8a8a8" opacity="0.5"/><rect x="501" y="56" width="6" height="6" fill="#e8e8e8"/><rect x="502" y="61" width="5" height="1" fill="#a8a8a8" opacity="0.5"/><rect x="501" y="62" width="6" height="6" fill="#e8e8e8"/><rect x="502" y="67" width="5" height="1" fill="#a8a8a8" opacity="0.5"/><rect x="501" y="68" width="6" height="6" fill="#e8e8e8"/><rect x="502" y="73" width="5" height="1" fill="#a8a8a8" opacity="0.5"/><rect x="501" y="74" width="6" height="6" fill="#e8e8e8"/><rect x="502" y="79" width="5" height="1" fill="#a8a8a8" opacity="0.5"/><rect x="501" y="80" width="6" height="6" fill="#e8e8e8"/><rect x="502" y="85" width="5" height="1" fill="#a8a8a8" opacity="0.5"/><rect x="489" y="86" width="6" height="6" fill="#e8e8e8"/><rect x="490" y="91" width="5" height="1" fill="#a8a8a8" opacity="0.5"/><rect x="495" y="86" width="6" height="6" fill="#e8e8e8"/><rect x="496" y="91" width="5" height="1" fill="#a8a8a8" opacity="0.5"/><rect x="501" y="86" width="6" height="6" fill="#e8e8e8"/><rect x="502" y="91" width="5" height="1" fill="#a8a8a8" opacity="0.5"/><rect x="507" y="86" width="6" height="6" fill="#e8e8e8"/><rect x="508" y="91" width="5" height="1" fill="#a8a8a8" opacity="0.5"/><rect x="513" y="86" width="6" height="6" fill="#e8e8e8"/><rect x="514" y="91" width="5" height="1" fill="#a8a8a8" opacity="0.5"/><rect x="531" y="50" width="6" height="6" fill="#e8e8e8"/><rect x="532" y="55" width="5" height="1" fill="#a8a8a8" opacity="0.5"/><rect x="537" y="50" width="6" height="6" fill="#e8e8e8"/><rect x="538" y="55" width="5" height="1" fill="#a8a8a8" opacity="0.5"/><rect x="543" y="50" width="6" height="6" fill="#e8e8e8"/><rect x="544" y="55" width="5" height="1" fill="#a8a8a8" opacity="0.5"/><rect x="525" y="56" width="6" height="6" fill="#e8e8e8"/><rect x="526" y="61" width="5" height="1" fill="#a8a8a8" opacity="0.5"/><rect x="549" y="56" width="6" height="6" fill="#e8e8e8"/><rect x="550" y="61" width="5" height="1" fill="#a8a8a8" opacity="0.5"/><rect x="525" y="62" width="6" height="6" fill="#e8e8e8"/><rect x="526" y="67" width="5" height="1" fill="#a8a8a8" opacity="0.5"/><rect x="549" y="62" width="6" height="6" fill="#e8e8e8"/><rect x="550" y="67" width="5" height="1" fill="#a8a8a8" opacity="0.5"/><rect x="525" y="68" width="6" height="6" fill="#e8e8e8"/><rect x="526" y="73" width="5" height="1" fill="#a8a8a8" opacity="0.5"/><rect x="531" y="68" width="6" height="6" fill="#e8e8e8"/><rect x="532" y="73" width="5" height="1" fill="#a8a8a8" opacity="0.5"/><rect x="537" y="68" width="6" height="6" fill="#e8e8e8"/><rect x="538" y="73" width="5" height="1" fill="#a8a8a8" opacity="0.5"/><rect x="543" y="68" width="6" height="6" fill="#e8e8e8"/><rect x="544" y="73" width="5" height="1" fill="#a8a8a8" opacity="0.5"/><rect x="549" y="68" width="6" height="6" fill="#e8e8e8"/><rect x="550" y="73" width="5" height="1" fill="#a8a8a8" opacity="0.5"/><rect x="525" y="74" width="6" height="6" fill="#e8e8e8"/><rect x="526" y="79" width="5" height="1" fill="#a8a8a8" opacity="0.5"/><rect x="549" y="74" width="6" height="6" fill="#e8e8e8"/><rect x="550" y="79" width="5" height="1" fill="#a8a8a8" opacity="0.5"/><rect x="525" y="80" width="6" height="6" fill="#e8e8e8"/><rect x="526" y="85" width="5" height="1" fill="#a8a8a8" opacity="0.5"/><rect x="549" y="80" width="6" height="6" fill="#e8e8e8"/><rect x="550" y="85" width="5" height="1" fill="#a8a8a8" opacity="0.5"/><rect x="525" y="86" width="6" height="6" fill="#e8e8e8"/><rect x="526" y="91" width="5" height="1" fill="#a8a8a8" opacity="0.5"/><rect x="549" y="86" width="6" height="6" fill="#e8e8e8"/><rect x="550" y="91" width="5" height="1" fill="#a8a8a8" opacity="0.5"/>
<text x="450" y="110" text-anchor="middle" font-family="'Courier New',monospace" font-size="11" fill="#888888" letter-spacing="2">Source-Traceable Save Archive</text>

</svg>