<svg xmlns="http://www.w3.org/2000/svg" viewBox="0 0 900 180" width="900" height="180">
<rect width="900" height="180" fill="#1a1a2e"/>
<!-- Shadow layer -->
<rect x="78" y="34" width="12" height="12" fill="#3a3a3a"/><rect x="126" y="34" width="12" height="12" fill="#3a3a3a"/><rect x="78" y="46" width="12" height="12" fill="#3a3a3a"/><rect x="90" y="46" width="12" height="12" fill="#3a3a3a"/><rect x="114" y="46" width="12" height="12" fill="#3a3a3a"/><rect x="126" y="46" width="12" height="12" fill="#3a3a3a"/><rect x="78" y="58" width="12" height="12" fill="#3a3a3a"/><rect x="102" y="58" width="12" height="12" fill="#3a3a3a"/><rect x="126" y="58" width="12" height="12" fill="#3a3a3a"/><rect x="78" y="70" width="12" height="12" fill="#3a3a3a"/><rect x="102" y="70" width="12" height="12" fill="#3a3a3a"/><rect x="126" y="70" width="12" height="12" fill="#3a3a3a"/><rect x="78" y="82" width="12" height="12" fill="#3a3a3a"/><rect x="126" y="82" width="12" height="12" fill="#3a3a3a"/><rect x="78" y="94" width="12" height="12" fill="#3a3a3a"/><rect x="126" y="94" width="12" height="12" fill="#3a3a3a"/><rect x="78" y="106" width="12" height="12" fill="#3a3a3a"/><rect x="126" y="106" width="12" height="12" fill="#3a3a3a"/><rect x="150" y="34" width="12" height="12" fill="#3a3a3a"/><rect x="198" y="34" width="12" height="12" fill="#3a3a3a"/><rect x="150" y="46" width="12" height="12" fill="#3a3a3a"/><rect x="198" y="46" width="12" height="12" fill="#3a3a3a"/><rect x="162" y="58" width="12" height="12" fill="#3a3a3a"/><rect x="186" y="58" width="12" height="12" fill="#3a3a3a"/><rect x="174" y="70" width="12" height="12" fill="#3a3a3a"/><rect x="174" y="82" width="12" height="12" fill="#3a3a3a"/><rect x="174" y="94" width="12" height="12" fill="#3a3a3a"/><rect x="174" y="106" width="12" height="12" fill="#3a3a3a"/><rect x="294" y="34" width="12" height="12" fill="#3a3a3a"/><rect x="306" y="34" width="12" height="12" fill="#3a3a3a"/><rect x="318" y="34" width="12" height="12" fill="#3a3a3a"/><rect x="330" y="34" width="12" height="12" fill="#3a3a3a"/><rect x="342" y="34" width="12" height="12" fill="#3a3a3a"/><rect x="318" y="46" width="12" height="12" fill="#3a3a3a"/><rect x="318" y="58" width="12" height="12" fill="#3a3a3a"/><rect x="318" y="70" width="12" height="12" fill="#3a3a3a"/><rect x="318" y="82" width="12" height="12" fill="#3a3a3a"/><rect x="318" y="94" width="12" height="12" fill="#3a3a3a"/><rect x="318" y="106" width="12" height="12" fill="#3a3a3a"/><rect x="366" y="34" width="12" height="12" fill="#3a3a3a"/><rect x="378" y="34" width="12" height="12" fill="#3a3a3a"/><rect x="390" y="34" width="12" height="12" fill="#3a3a3a"/><rect x="402" y="34" width="12" height="12" fill="#3a3a3a"/><rect x="414" y="34" width="12" height="12" fill="#3a3a3a"/><rect x="366" y="46" width="12" height="12" fill="#3a3a3a"/><rect x="366" y="58" width="12" height="12" fill="#3a3a3a"/><rect x="366" y="70" width="12" height="12" fill="#3a3a3a"/><rect x="378" y="70" width="12" height="12" fill="#3a3a3a"/><rect x="390" y="70" width="12" height="12" fill="#3a3a3a"/><rect x="402" y="70" width="12" height="12" fill="#3a3a3a"/><rect x="366" y="82" width="12" height="12" fill="#3a3a3a"/><rect x="366" y="94" width="12" height="12" fill="#3a3a3a"/><rect x="366" y="106" width="12" height="12" fill="#3a3a3a"/><rect x="378" y="106" width="12" height="12" fill="#3a3a3a"/><rect x="390" y="106" width="12" height="12" fill="#3a3a3a"/><rect x="402" y="106" width="12" height="12" fill="#3a3a3a"/><rect x="414" y="106" width="12" height="12" fill="#3a3a3a"/><rect x="438" y="34" width="12" height="12" fill="#3a3a3a"/><rect x="450" y="34" width="12" height="12" fill="#3a3a3a"/><rect x="462" y="34" width="12" height="12" fill="#3a3a3a"/><rect x="474" y="34" width="12" height="12" fill="#3a3a3a"/><rect x="438" y="46" width="12" height="12" fill="#3a3a3a"/><rect x="486" y="46" width="12" height="12" fill="#3a3a3a"/><rect x="438" y="58" width="12" height="12" fill="#3a3a3a"/><rect x="486" y="58" width="12" height="12" fill="#3a3a3a"/><rect x="438" y="70" width="12" height="12" fill="#3a3a3a"/><rect x="450" y="70" width="12" height="12" fill="#3a3a3a"/><rect x="462" y="70" width="12" height="12" fill="#3a3a3a"/><rect x="474" y="70" width="12" height="12" fill="#3a3a3a"/><rect x="438" y="82" width="12" height="12" fill="#3a3a3a"/><rect x="462" y="82" width="12" height="12" fill="#3a3a3a"/><rect x="438" y="94" width="12" height="12" fill="#3a3a3a"/><rect x="474" y="94" width="12" height="12" fill="#3a3a3a"/><rect x="438" y="106" width="12" height="12" fill="#3a3a3a"/><rect x="486" y="106" width="12" height="12" fill="#3a3a3a"/><rect x="510" y="34" width="12" height="12" fill="#3a3a3a"/><rect x="522" y="34" width="12" height="12" fill="#3a3a3a"/><rect x="534" y="34" width="12" height="12" fill="#3a3a3a"/><rect x="546" y="34" width="12" height="12" fill="#3a3a3a"/><rect x="510" y="46" width="12" height="12" fill="#3a3a3a"/><rect x="558" y="46" width="12" height="12" fill="#3a3a3a"/><rect x="510" y="58" width="12" height="12" fill="#3a3a3a"/><rect x="558" y="58" width="12" height="12" fill="#3a3a3a"/><rect x="510" y="70" width="12" height="12" fill="#3a3a3a"/><rect x="522" y="70" width="12" height="12" fill="#3a3a3a"/><rect x="534" y="70" width="12" height="12" fill="#3a3a3a"/><rect x="546" y="70" width="12" height="12" fill="#3a3a3a"/><rect x="510" y="82" width="12" height="12" fill="#3a3a3a"/><rect x="534" y="82" width="12" height="12" fill="#3a3a3a"/><rect x="510" y="94" width="12" height="12" fill="#3a3a3a"/><rect x="546" y="94" width="12" height="12" fill="#3a3a3a"/><rect x="510" y="106" width="12" height="12" fill="#3a3a3a"/><rect x="558" y="106" width="12" height="12" fill="#3a3a3a"/><rect x="594" y="34" width="12" height="12" fill="#3a3a3a"/><rect x="606" y="34" width="12" height="12" fill="#3a3a3a"/><rect x="618" y="34" width="12" height="12" fill="#3a3a3a"/><rect x="582" y="46" width="12" height="12" fill="#3a3a3a"/><rect x="630" y="46" width="12" height="12" fill="#3a3a3a"/><rect x="582" y="58" width="12" height="12" fill="#3a3a3a"/><rect x="630" y="58" width="12" height="12" fill="#3a3a3a"/><rect x="582" y="70" width="12" height="12" fill="#3a3a3a"/><rect x="594" y="70" width="12" height="12" fill="#3a3a3a"/><rect x="606" y="70" width="12" height="12" fill="#3a3a3a"/><rect x="618" y="70" width="12" height="12" fill="#3a3a3a"/><rect x="630" y="70" width="12" height="12" fill="#3a3a3a"/><rect x="582" y="82" width="12" height="12" fill="#3a3a3a"/><rect x="630" y="82" width="12" height="12" fill="#3a3a3a"/><rect x="582" y="94" width="12" height="12" fill="#3a3a3a"/><rect x="630" y="94" width="12" height="12" fill="#3a3a3a"/><rect x="582" y="106" width="12" height="12" fill="#3a3a3a"/><rect x="630" y="106" width="12" height="12" fill="#3a3a3a"/><rect x="654" y="34" width="12" height="12" fill="#3a3a3a"/><rect x="666" y="34" width="12" height="12" fill="#3a3a3a"/><rect x="678" y="34" width="12" height="12" fill="#3a3a3a"/><rect x="690" y="34" width="12" height="12" fill="#3a3a3a"/><rect x="654" y="46" width="12" height="12" fill="#3a3a3a"/><rect x="702" y="46" width="12" height="12" fill="#3a3a3a"/><rect x="654" y="58" width="12" height="12" fill="#3a3a3a"/><rect x="702" y="58" width="12" height="12" fill="#3a3a3a"/><rect x="654" y="70" width="12" height="12" fill="#3a3a3a"/><rect x="666" y="70" width="12" height="12" fill="#3a3a3a"/><rect x="678" y="70" width="12" height="12" fill="#3a3a3a"/><rect x="690" y="70" width="12" height="12" fill="#3a3a3a"/><rect x="654" y="82" width="12" height="12" fill="#3a3a3a"/><rect x="678" y="82" width="12" height="12" fill="#3a3a3a"/><rect x="654" y="94" width="12" height="12" fill="#3a3a3a"/><rect x="690" y="94" width="12" height="12" fill="#3a3a3a"/><rect x="654" y="106" width="12" height="12" fill="#3a3a3a"/><rect x="702" y="106" width="12" height="12" fill="#3a3a3a"/><rect x="726" y="34" width="12" height="12" fill="#3a3a3a"/><rect x="738" y="34" width="12" height="12" fill="#3a3a3a"/><rect x="750" y="34" width="12" height="12" fill="#3a3a3a"/><rect x="762" y="34" width="12" height="12" fill="#3a3a3a"/><rect x="774" y="34" width="12" height="12" fill="#3a3a3a"/><rect x="750" y="46" width="12" height="12" fill="#3a3a3a"/><rect x="750" y="58" width="12" height="12" fill="#3a3a3a"/><rect x="750" y="70" width="12" height="12" fill="#3a3a3a"/><rect x="750" y="82" width="12" height="12" fill="#3a3a3a"/><rect x="750" y="94" width="12" height="12" fill="#3a3a3a"/><rect x="726" y="106" width="12" height="12" fill="#3a3a3a"/><rect x="738" y="106" width="12" height="12" fill="#3a3a3a"/><rect x="750" y="106" width="12" height="12" fill="#3a3a3a"/><rect x="762" y="106" width="12" height="12" fill="#3a3a3a"/><rect x="774" y="106" width="12" height="12" fill="#3a3a3a"/><rect x="810" y="34" width="12" height="12" fill="#3a3a3a"/><rect x="822" y="34" width="12" height="12" fill="#3a3a3a"/><rect x="834" y="34" width="12" height="12" fill="#3a3a3a"/><rect x="798" y="46" width="12" height="12" fill="#3a3a3a"/><rect x="846" y="46" width="12" height="12" fill="#3a3a3a"/><rect x="798" y="58" width="12" height="12" fill="#3a3a3a"/><rect x="846" y="58" width="12" height="12" fill="#3a3a3a"/><rect x="798" y="70" width="12" height="12" fill="#3a3a3a"/><rect x="810" y="70" width="12" height="12" fill="#3a3a3a"/><rect x="822" y="70" width="12" height="12" fill="#3a3a3a"/><rect x="834" y="70" width="12" height="12" fill="#3a3a3a"/><rect x="846" y="70" width="12" height="12" fill="#3a3a3a"/><rect x="798" y="82" width="12" height="12" fill="#3a3a3a"/><rect x="846" y="82" width="12" height="12" fill="#3a3a3a"/><rect x="798" y="94" width="12" height="12" fill="#3a3a3a"/><rect x="846" y="94" width="12" height="12" fill="#3a3a3a"/><rect x="798" y="106" width="12" height="12" fill="#3a3a3a"/><rect x="846" y="106" width="12" height="12" fill="#3a3a3a"/>
<!-- Main letter layer -->
<rect x="74" y="30" width="12" height="12" fill="#a0a0a0"/><rect x="74" y="30" width="12" height="3" fill="#d0d0d0"/><rect x="122" y="30" width="12" height="12" fill="#a0a0a0"/><rect x="122" y="30" width="12" height="3" fill="#d0d0d0"/><rect x="74" y="42" width="12" height="12" fill="#a0a0a0"/><rect x="74" y="42" width="12" height="3" fill="#d0d0d0"/><rect x="86" y="42" width="12" height="12" fill="#a0a0a0"/><rect x="86" y="42" width="12" height="3" fill="#d0d0d0"/><rect x="110" y="42" width="12" height="12" fill="#a0a0a0"/><rect x="110" y="42" width="12" height="3" fill="#d0d0d0"/><rect x="122" y="42" width="12" height="12" fill="#a0a0a0"/><rect x="122" y="42" width="12" height="3" fill="#d0d0d0"/><rect x="74" y="54" width="12" height="12" fill="#a0a0a0"/><rect x="74" y="54" width="12" height="3" fill="#d0d0d0"/><rect x="98" y="54" width="12" height="12" fill="#a0a0a0"/><rect x="98" y="54" width="12" height="3" fill="#d0d0d0"/><rect x="122" y="54" width="12" height="12" fill="#a0a0a0"/><rect x="122" y="54" width="12" height="3" fill="#d0d0d0"/><rect x="74" y="66" width="12" height="12" fill="#a0a0a0"/><rect x="74" y="66" width="12" height="3" fill="#d0d0d0"/><rect x="98" y="66" width="12" height="12" fill="#a0a0a0"/><rect x="98" y="66" width="12" height="3" fill="#d0d0d0"/><rect x="122" y="66" width="12" height="12" fill="#a0a0a0"/><rect x="122" y="66" width="12" height="3" fill="#d0d0d0"/><rect x="74" y="78" width="12" height="12" fill="#a0a0a0"/><rect x="74" y="78" width="12" height="3" fill="#d0d0d0"/><rect x="122" y="78" width="12" height="12" fill="#a0a0a0"/><rect x="122" y="78" width="12" height="3" fill="#d0d0d0"/><rect x="74" y="90" width="12" height="12" fill="#a0a0a0"/><rect x="74" y="90" width="12" height="3" fill="#d0d0d0"/><rect x="122" y="90" width="12" height="12" fill="#a0a0a0"/><rect x="122" y="90" width="12" height="3" fill="#d0d0d0"/><rect x="74" y="102" width="12" height="12" fill="#a0a0a0"/><rect x="74" y="102" width="12" height="3" fill="#d0d0d0"/><rect x="122" y="102" width="12" height="12" fill="#a0a0a0"/><rect x="122" y="102" width="12" height="3" fill="#d0d0d0"/><rect x="146" y="30" width="12" height="12" fill="#a0a0a0"/><rect x="146" y="30" width="12" height="3" fill="#d0d0d0"/><rect x="194" y="30" width="12" height="12" fill="#a0a0a0"/><rect x="194" y="30" width="12" height="3" fill="#d0d0d0"/><rect x="146" y="42" width="12" height="12" fill="#a0a0a0"/><rect x="146" y="42" width="12" height="3" fill="#d0d0d0"/><rect x="194" y="42" width="12" height="12" fill="#a0a0a0"/><rect x="194" y="42" width="12" height="3" fill="#d0d0d0"/><rect x="158" y="54" width="12" height="12" fill="#a0a0a0"/><rect x="158" y="54" width="12" height="3" fill="#d0d0d0"/><rect x="182" y="54" width="12" height="12" fill="#a0a0a0"/><rect x="182" y="54" width="12" height="3" fill="#d0d0d0"/><rect x="170" y="66" width="12" height="12" fill="#a0a0a0"/><rect x="170" y="66" width="12" height="3" fill="#d0d0d0"/><rect x="170" y="78" width="12" height="12" fill="#a0a0a0"/><rect x="170" y="78" width="12" height="3" fill="#d0d0d0"/><rect x="170" y="90" width="12" height="12" fill="#a0a0a0"/><rect x="170" y="90" width="12" height="3" fill="#d0d0d0"/><rect x="170" y="102" width="12" height="12" fill="#a0a0a0"/><rect x="170" y="102" width="12" height="3" fill="#d0d0d0"/><rect x="290" y="30" width="12" height="12" fill="#a0a0a0"/><rect x="290" y="30" width="12" height="3" fill="#d0d0d0"/><rect x="302" y="30" width="12" height="12" fill="#a0a0a0"/><rect x="302" y="30" width="12" height="3" fill="#d0d0d0"/><rect x="314" y="30" width="12" height="12" fill="#a0a0a0"/><rect x="314" y="30" width="12" height="3" fill="#d0d0d0"/><rect x="326" y="30" width="12" height="12" fill="#a0a0a0"/><rect x="326" y="30" width="12" height="3" fill="#d0d0d0"/><rect x="338" y="30" width="12" height="12" fill="#a0a0a0"/><rect x="338" y="30" width="12" height="3" fill="#d0d0d0"/><rect x="314" y="42" width="12" height="12" fill="#a0a0a0"/><rect x="314" y="42" width="12" height="3" fill="#d0d0d0"/><rect x="314" y="54" width="12" height="12" fill="#a0a0a0"/><rect x="314" y="54" width="12" height="3" fill="#d0d0d0"/><rect x="314" y="66" width="12" height="12" fill="#a0a0a0"/><rect x="314" y="66" width="12" height="3" fill="#d0d0d0"/><rect x="314" y="78" width="12" height="12" fill="#a0a0a0"/><rect x="314" y="78" width="12" height="3" fill="#d0d0d0"/><rect x="314" y="90" width="12" height="12" fill="#a0a0a0"/><rect x="314" y="90" width="12" height="3" fill="#d0d0d0"/><rect x="314" y="102" width="12" height="12" fill="#a0a0a0"/><rect x="314" y="102" width="12" height="3" fill="#d0d0d0"/><rect x="362" y="30" width="12" height="12" fill="#a0a0a0"/><rect x="362" y="30" width="12" height="3" fill="#d0d0d0"/><rect x="374" y="30" width="12" height="12" fill="#a0a0a0"/><rect x="374" y="30" width="12" height="3" fill="#d0d0d0"/><rect x="386" y="30" width="12" height="12" fill="#a0a0a0"/><rect x="386" y="30" width="12" height="3" fill="#d0d0d0"/><rect x="398" y="30" width="12" height="12" fill="#a0a0a0"/><rect x="398" y="30" width="12" height="3" fill="#d0d0d0"/><rect x="410" y="30" width="12" height="12" fill="#a0a0a0"/><rect x="410" y="30" width="12" height="3" fill="#d0d0d0"/><rect x="362" y="42" width="12" height="12" fill="#a0a0a0"/><rect x="362" y="42" width="12" height="3" fill="#d0d0d0"/><rect x="362" y="54" width="12" height="12" fill="#a0a0a0"/><rect x="362" y="54" width="12" height="3" fill="#d0d0d0"/><rect x="362" y="66" width="12" height="12" fill="#a0a0a0"/><rect x="362" y="66" width="12" height="3" fill="#d0d0d0"/><rect x="374" y="66" width="12" height="12" fill="#a0a0a0"/><rect x="374" y="66" width="12" height="3" fill="#d0d0d0"/><rect x="386" y="66" width="12" height="12" fill="#a0a0a0"/><rect x="386" y="66" width="12" height="3" fill="#d0d0d0"/><rect x="398" y="66" width="12" height="12" fill="#a0a0a0"/><rect x="398" y="66" width="12" height="3" fill="#d0d0d0"/><rect x="362" y="78" width="12" height="12" fill="#a0a0a0"/><rect x="362" y="78" width="12" height="3" fill="#d0d0d0"/><rect x="362" y="90" width="12" height="12" fill="#a0a0a0"/><rect x="362" y="90" width="12" height="3" fill="#d0d0d0"/><rect x="362" y="102" width="12" height="12" fill="#a0a0a0"/><rect x="362" y="102" width="12" height="3" fill="#d0d0d0"/><rect x="374" y="102" width="12" height="12" fill="#a0a0a0"/><rect x="374" y="102" width="12" height="3" fill="#d0d0d0"/><rect x="386" y="102" width="12" height="12" fill="#a0a0a0"/><rect x="386" y="102" width="12" height="3" fill="#d0d0d0"/><rect x="398" y="102" width="12" height="12" fill="#a0a0a0"/><rect x="398" y="102" width="12" height="3" fill="#d0d0d0"/><rect x="410" y="102" width="12" height="12" fill="#a0a0a0"/><rect x="410" y="102" width="12" height="3" fill="#d0d0d0"/><rect x="434" y="30" width="12" height="12" fill="#a0a0a0"/><rect x="434" y="30" width="12" height="3" fill="#d0d0d0"/><rect x="446" y="30" width="12" height="12" fill="#a0a0a0"/><rect x="446" y="30" width="12" height="3" fill="#d0d0d0"/><rect x="458" y="30" width="12" height="12" fill="#a0a0a0"/><rect x="458" y="30" width="12" height="3" fill="#d0d0d0"/><rect x="470" y="30" width="12" height="12" fill="#a0a0a0"/><rect x="470" y="30" width="12" height="3" fill="#d0d0d0"/><rect x="434" y="42" width="12" height="12" fill="#a0a0a0"/><rect x="434" y="42" width="12" height="3" fill="#d0d0d0"/><rect x="482" y="42" width="12" height="12" fill="#a0a0a0"/><rect x="482" y="42" width="12" height="3" fill="#d0d0d0"/><rect x="434" y="54" width="12" height="12" fill="#a0a0a0"/><rect x="434" y="54" width="12" height="3" fill="#d0d0d0"/><rect x="482" y="54" width="12" height="12" fill="#a0a0a0"/><rect x="482" y="54" width="12" height="3" fill="#d0d0d0"/><rect x="434" y="66" width="12" height="12" fill="#a0a0a0"/><rect x="434" y="66" width="12" height="3" fill="#d0d0d0"/><rect x="446" y="66" width="12" height="12" fill="#a0a0a0"/><rect x="446" y="66" width="12" height="3" fill="#d0d0d0"/><rect x="458" y="66" width="12" height="12" fill="#a0a0a0"/><rect x="458" y="66" width="12" height="3" fill="#d0d0d0"/><rect x="470" y="66" width="12" height="12" fill="#a0a0a0"/><rect x="470" y="66" width="12" height="3" fill="#d0d0d0"/><rect x="434" y="78" width="12" height="12" fill="#a0a0a0"/><rect x="434" y="78" width="12" height="3" fill="#d0d0d0"/><rect x="458" y="78" width="12" height="12" fill="#a0a0a0"/><rect x="458" y="78" width="12" height="3" fill="#d0d0d0"/><rect x="434" y="90" width="12" height="12" fill="#a0a0a0"/><rect x="434" y="90" width="12" height="3" fill="#d0d0d0"/><rect x="470" y="90" width="12" height="12" fill="#a0a0a0"/><rect x="470" y="90" width="12" height="3" fill="#d0d0d0"/><rect x="434" y="102" width="12" height="12" fill="#a0a0a0"/><rect x="434" y="102" width="12" height="3" fill="#d0d0d0"/><rect x="482" y="102" width="12" height="12" fill="#a0a0a0"/><rect x="482" y="102" width="12" height="3" fill="#d0d0d0"/><rect x="506" y="30" width="12" height="12" fill="#a0a0a0"/><rect x="506" y="30" width="12" height="3" fill="#d0d0d0"/><rect x="518" y="30" width="12" height="12" fill="#a0a0a0"/><rect x="518" y="30" width="12" height="3" fill="#d0d0d0"/><rect x="530" y="30" width="12" height="12" fill="#a0a0a0"/><rect x="530" y="30" width="12" height="3" fill="#d0d0d0"/><rect x="542" y="30" width="12" height="12" fill="#a0a0a0"/><rect x="542" y="30" width="12" height="3" fill="#d0d0d0"/><rect x="506" y="42" width="12" height="12" fill="#a0a0a0"/><rect x="506" y="42" width="12" height="3" fill="#d0d0d0"/><rect x="554" y="42" width="12" height="12" fill="#a0a0a0"/><rect x="554" y="42" width="12" height="3" fill="#d0d0d0"/><rect x="506" y="54" width="12" height="12" fill="#a0a0a0"/><rect x="506" y="54" width="12" height="3" fill="#d0d0d0"/><rect x="554" y="54" width="12" height="12" fill="#a0a0a0"/><rect x="554" y="54" width="12" height="3" fill="#d0d0d0"/><rect x="506" y="66" width="12" height="12" fill="#a0a0a0"/><rect x="506" y="66" width="12" height="3" fill="#d0d0d0"/><rect x="518" y="66" width="12" height="12" fill="#a0a0a0"/><rect x="518" y="66" width="12" height="3" fill="#d0d0d0"/><rect x="530" y="66" width="12" height="12" fill="#a0a0a0"/><rect x="530" y="66" width="12" height="3" fill="#d0d0d0"/><rect x="542" y="66" width="12" height="12" fill="#a0a0a0"/><rect x="542" y="66" width="12" height="3" fill="#d0d0d0"/><rect x="506" y="78" width="12" height="12" fill="#a0a0a0"/><rect x="506" y="78" width="12" height="3" fill="#d0d0d0"/><rect x="530" y="78" width="12" height="12" fill="#a0a0a0"/><rect x="530" y="78" width="12" height="3" fill="#d0d0d0"/><rect x="506" y="90" width="12" height="12" fill="#a0a0a0"/><rect x="506" y="90" width="12" height="3" fill="#d0d0d0"/><rect x="542" y="90" width="12" height="12" fill="#a0a0a0"/><rect x="542" y="90" width="12" height="3" fill="#d0d0d0"/><rect x="506" y="102" width="12" height="12" fill="#a0a0a0"/><rect x="506" y="102" width="12" height="3" fill="#d0d0d0"/><rect x="554" y="102" width="12" height="12" fill="#a0a0a0"/><rect x="554" y="102" width="12" height="3" fill="#d0d0d0"/><rect x="590" y="30" width="12" height="12" fill="#a0a0a0"/><rect x="590" y="30" width="12" height="3" fill="#d0d0d0"/><rect x="602" y="30" width="12" height="12" fill="#a0a0a0"/><rect x="602" y="30" width="12" height="3" fill="#d0d0d0"/><rect x="614" y="30" width="12" height="12" fill="#a0a0a0"/><rect x="614" y="30" width="12" height="3" fill="#d0d0d0"/><rect x="578" y="42" width="12" height="12" fill="#a0a0a0"/><rect x="578" y="42" width="12" height="3" fill="#d0d0d0"/><rect x="626" y="42" width="12" height="12" fill="#a0a0a0"/><rect x="626" y="42" width="12" height="3" fill="#d0d0d0"/><rect x="578" y="54" width="12" height="12" fill="#a0a0a0"/><rect x="578" y="54" width="12" height="3" fill="#d0d0d0"/><rect x="626" y="54" width="12" height="12" fill="#a0a0a0"/><rect x="626" y="54" width="12" height="3" fill="#d0d0d0"/><rect x="578" y="66" width="12" height="12" fill="#a0a0a0"/><rect x="578" y="66" width="12" height="3" fill="#d0d0d0"/><rect x="590" y="66" width="12" height="12" fill="#a0a0a0"/><rect x="590" y="66" width="12" height="3" fill="#d0d0d0"/><rect x="602" y="66" width="12" height="12" fill="#a0a0a0"/><rect x="602" y="66" width="12" height="3" fill="#d0d0d0"/><rect x="614" y="66" width="12" height="12" fill="#a0a0a0"/><rect x="614" y="66" width="12" height="3" fill="#d0d0d0"/><rect x="626" y="66" width="12" height="12" fill="#a0a0a0"/><rect x="626" y="66" width="12" height="3" fill="#d0d0d0"/><rect x="578" y="78" width="12" height="12" fill="#a0a0a0"/><rect x="578" y="78" width="12" height="3" fill="#d0d0d0"/><rect x="626" y="78" width="12" height="12" fill="#a0a0a0"/><rect x="626" y="78" width="12" height="3" fill="#d0d0d0"/><rect x="578" y="90" width="12" height="12" fill="#a0a0a0"/><rect x="578" y="90" width="12" height="3" fill="#d0d0d0"/><rect x="626" y="90" width="12" height="12" fill="#a0a0a0"/><rect x="626" y="90" width="12" height="3" fill="#d0d0d0"/><rect x="578" y="102" width="12" height="12" fill="#a0a0a0"/><rect x="578" y="102" width="12" height="3" fill="#d0d0d0"/><rect x="626" y="102" width="12" height="12" fill="#a0a0a0"/><rect x="626" y="102" width="12" height="3" fill="#d0d0d0"/><rect x="650" y="30" width="12" height="12" fill="#a0a0a0"/><rect x="650" y="30" width="12" height="3" fill="#d0d0d0"/><rect x="662" y="30" width="12" height="12" fill="#a0a0a0"/><rect x="662" y="30" width="12" height="3" fill="#d0d0d0"/><rect x="674" y="30" width="12" height="12" fill="#a0a0a0"/><rect x="674" y="30" width="12" height="3" fill="#d0d0d0"/><rect x="686" y="30" width="12" height="12" fill="#a0a0a0"/><rect x="686" y="30" width="12" height="3" fill="#d0d0d0"/><rect x="650" y="42" width="12" height="12" fill="#a0a0a0"/><rect x="650" y="42" width="12" height="3" fill="#d0d0d0"/><rect x="698" y="42" width="12" height="12" fill="#a0a0a0"/><rect x="698" y="42" width="12" height="3" fill="#d0d0d0"/><rect x="650" y="54" width="12" height="12" fill="#a0a0a0"/><rect x="650" y="54" width="12" height="3" fill="#d0d0d0"/><rect x="698" y="54" width="12" height="12" fill="#a0a0a0"/><rect x="698" y="54" width="12" height="3" fill="#d0d0d0"/><rect x="650" y="66" width="12" height="12" fill="#a0a0a0"/><rect x="650" y="66" width="12" height="3" fill="#d0d0d0"/><rect x="662" y="66" width="12" height="12" fill="#a0a0a0"/><rect x="662" y="66" width="12" height="3" fill="#d0d0d0"/><rect x="674" y="66" width="12" height="12" fill="#a0a0a0"/><rect x="674" y="66" width="12" height="3" fill="#d0d0d0"/><rect x="686" y="66" width="12" height="12" fill="#a0a0a0"/><rect x="686" y="66" width="12" height="3" fill="#d0d0d0"/><rect x="650" y="78" width="12" height="12" fill="#a0a0a0"/><rect x="650" y="78" width="12" height="3" fill="#d0d0d0"/><rect x="674" y="78" width="12" height="12" fill="#a0a0a0"/><rect x="674" y="78" width="12" height="3" fill="#d0d0d0"/><rect x="650" y="90" width="12" height="12" fill="#a0a0a0"/><rect x="650" y="90" width="12" height="3" fill="#d0d0d0"/><rect x="686" y="90" width="12" height="12" fill="#a0a0a0"/><rect x="686" y="90" width="12" height="3" fill="#d0d0d0"/><rect x="650" y="102" width="12" height="12" fill="#a0a0a0"/><rect x="650" y="102" width="12" height="3" fill="#d0d0d0"/><rect x="698" y="102" width="12" height="12" fill="#a0a0a0"/><rect x="698" y="102" width="12" height="3" fill="#d0d0d0"/><rect x="722" y="30" width="12" height="12" fill="#a0a0a0"/><rect x="722" y="30" width="12" height="3" fill="#d0d0d0"/><rect x="734" y="30" width="12" height="12" fill="#a0a0a0"/><rect x="734" y="30" width="12" height="3" fill="#d0d0d0"/><rect x="746" y="30" width="12" height="12" fill="#a0a0a0"/><rect x="746" y="30" width="12" height="3" fill="#d0d0d0"/><rect x="758" y="30" width="12" height="12" fill="#a0a0a0"/><rect x="758" y="30" width="12" height="3" fill="#d0d0d0"/><rect x="770" y="30" width="12" height="12" fill="#a0a0a0"/><rect x="770" y="30" width="12" height="3" fill="#d0d0d0"/><rect x="746" y="42" width="12" height="12" fill="#a0a0a0"/><rect x="746" y="42" width="12" height="3" fill="#d0d0d0"/><rect x="746" y="54" width="12" height="12" fill="#a0a0a0"/><rect x="746" y="54" width="12" height="3" fill="#d0d0d0"/><rect x="746" y="66" width="12" height="12" fill="#a0a0a0"/><rect x="746" y="66" width="12" height="3" fill="#d0d0d0"/><rect x="746" y="78" width="12" height="12" fill="#a0a0a0"/><rect x="746" y="78" width="12" height="3" fill="#d0d0d0"/><rect x="746" y="90" width="12" height="12" fill="#a0a0a0"/><rect x="746" y="90" width="12" height="3" fill="#d0d0d0"/><rect x="722" y="102" width="12" height="12" fill="#a0a0a0"/><rect x="722" y="102" width="12" height="3" fill="#d0d0d0"/><rect x="734" y="102" width="12" height="12" fill="#a0a0a0"/><rect x="734" y="102" width="12" height="3" fill="#d0d0d0"/><rect x="746" y="102" width="12" height="12" fill="#a0a0a0"/><rect x="746" y="102" width="12" height="3" fill="#d0d0d0"/><rect x="758" y="102" width="12" height="12" fill="#a0a0a0"/><rect x="758" y="102" width="12" height="3" fill="#d0d0d0"/><rect x="770" y="102" width="12" height="12" fill="#a0a0a0"/><rect x="770" y="102" width="12" height="3" fill="#d0d0d0"/><rect x="806" y="30" width="12" height="12" fill="#a0a0a0"/><rect x="806" y="30" width="12" height="3" fill="#d0d0d0"/><rect x="818" y="30" width="12" height="12" fill="#a0a0a0"/><rect x="818" y="30" width="12" height="3" fill="#d0d0d0"/><rect x="830" y="30" width="12" height="12" fill="#a0a0a0"/><rect x="830" y="30" width="12" height="3" fill="#d0d0d0"/><rect x="794" y="42" width="12" height="12" fill="#a0a0a0"/><rect x="794" y="42" width="12" height="3" fill="#d0d0d0"/><rect x="842" y="42" width="12" height="12" fill="#a0a0a0"/><rect x="842" y="42" width="12" height="3" fill="#d0d0d0"/><rect x="794" y="54" width="12" height="12" fill="#a0a0a0"/><rect x="794" y="54" width="12" height="3" fill="#d0d0d0"/><rect x="842" y="54" width="12" height="12" fill="#a0a0a0"/><rect x="842" y="54" width="12" height="3" fill="#d0d0d0"/><rect x="794" y="66" width="12" height="12" fill="#a0a0a0"/><rect x="794" y="66" width="12" height="3" fill="#d0d0d0"/><rect x="806" y="66" width="12" height="12" fill="#a0a0a0"/><rect x="806" y="66" width="12" height="3" fill="#d0d0d0"/><rect x="818" y="66" width="12" height="12" fill="#a0a0a0"/><rect x="818" y="66" width="12" height="3" fill="#d0d0d0"/><rect x="830" y="66" width="12" height="12" fill="#a0a0a0"/><rect x="830" y="66" width="12" height="3" fill="#d0d0d0"/><rect x="842" y="66" width="12" height="12" fill="#a0a0a0"/><rect x="842" y="66" width="12" height="3" fill="#d0d0d0"/><rect x="794" y="78" width="12" height="12" fill="#a0a0a0"/><rect x="794" y="78" width="12" height="3" fill="#d0d0d0"/><rect x="842" y="78" width="12" height="12" fill="#a0a0a0"/><rect x="842" y="78" width="12" height="3" fill="#d0d0d0"/><rect x="794" y="90" width="12" height="12" fill="#a0a0a0"/><rect x="794" y="90" width="12" height="3" fill="#d0d0d0"/><rect x="842" y="90" width="12" height="12" fill="#a0a0a0"/><rect x="842" y="90" width="12" height="3" fill="#d0d0d0"/><rect x="794" y="102" width="12" height="12" fill="#a0a0a0"/><rect x="794" y="102" width="12" height="3" fill="#d0d0d0"/><rect x="842" y="102" width="12" height="12" fill="#a0a0a0"/><rect x="842" y="102" width="12" height="3" fill="#d0d0d0"/>
<!-- Subtitle -->
<text x="450" y="140" text-anchor="middle" font-family="'Courier New',monospace" font-size="14" fill="#666666" letter-spacing="3">Source-Traceable Save Archive</text>
<!-- Border -->
<rect x="0" y="0" width="900" height="3" fill="#333"/>
<rect x="0" y="177" width="900" height="3" fill="#333"/>
<rect x="0" y="0" width="3" height="180" fill="#333"/>
<rect x="897" y="0" width="3" height="180" fill="#333"/>
</svg>
