<svg xmlns="http://www.w3.org/2000/svg" viewBox="0 0 800 20" width="800" height="20">
  <!-- Grass layer (top) -->
  <rect x="0" y="0" width="800" height="6" fill="#4a7c3f"/>
  <!-- Grass detail -->
  <rect x="30" y="0" width="4" height="2" fill="#5a9c4f"/>
  <rect x="80" y="0" width="6" height="2" fill="#5a9c4f"/>
  <rect x="150" y="0" width="4" height="2" fill="#5a9c4f"/>
  <rect x="230" y="0" width="6" height="2" fill="#5a9c4f"/>
  <rect x="320" y="0" width="4" height="2" fill="#5a9c4f"/>
  <rect x="410" y="0" width="6" height="2" fill="#5a9c4f"/>
  <rect x="500" y="0" width="4" height="2" fill="#5a9c4f"/>
  <rect x="580" y="0" width="6" height="2" fill="#5a9c4f"/>
  <rect x="660" y="0" width="4" height="2" fill="#5a9c4f"/>
  <rect x="740" y="0" width="6" height="2" fill="#5a9c4f"/>
  <!-- Dirt layer (middle) -->
  <rect x="0" y="6" width="800" height="8" fill="#8b6914"/>
  <!-- Dirt texture -->
  <rect x="50" y="8" width="4" height="3" fill="#7a5c12"/>
  <rect x="120" y="10" width="6" height="2" fill="#9a7916"/>
  <rect x="200" y="7" width="4" height="3" fill="#7a5c12"/>
  <rect x="300" y="9" width="6" height="3" fill="#9a7916"/>
  <rect x="420" y="8" width="4" height="2" fill="#7a5c12"/>
  <rect x="530" y="10" width="6" height="2" fill="#9a7916"/>
  <rect x="640" y="7" width="4" height="3" fill="#7a5c12"/>
  <rect x="750" y="9" width="6" height="3" fill="#9a7916"/>
  <!-- Stone layer (bottom) -->
  <rect x="0" y="14" width="800" height="6" fill="#808080"/>
  <!-- Stone texture -->
  <rect x="40" y="15" width="4" height="3" fill="#707070"/>
  <rect x="160" y="16" width="6" height="2" fill="#909090"/>
  <rect x="280" y="15" width="4" height="3" fill="#707070"/>
  <rect x="400" y="16" width="6" height="2" fill="#909090"/>
  <rect x="520" y="15" width="4" height="3" fill="#707070"/>
  <rect x="680" y="16" width="6" height="2" fill="#909090"/>
</svg>